<svg xmlns="http://www.w3.org/2000/svg" xmlns:xlink="http://www.w3.org/1999/xlink" width="1920" zoomAndPan="magnify" viewBox="0 0 1440 308.999992" height="412" preserveAspectRatio="xMidYMid meet" version="1.0"><defs><g/><clipPath id="dd5fab18da"><path d="M 0.210938 0.0234375 L 312.726562 0.0234375 L 312.726562 308.972656 L 0.210938 308.972656 Z M 0.210938 0.0234375 " clip-rule="nonzero"/></clipPath><clipPath id="7ea3cc17a9"><path d="M 493 126 L 503.226562 126 L 503.226562 137 L 493 137 Z M 493 126 " clip-rule="nonzero"/></clipPath><clipPath id="d477f4a32a"><path d="M 312.726562 76.679688 L 495 76.679688 L 495 207.929688 L 312.726562 207.929688 Z M 312.726562 76.679688 " clip-rule="nonzero"/></clipPath><clipPath id="65cf363e07"><path d="M 1127.484375 0.0234375 L 1440 0.0234375 L 1440 308.972656 L 1127.484375 308.972656 Z M 1127.484375 0.0234375 " clip-rule="nonzero"/></clipPath><clipPath id="18d6c75e72"><path d="M 937.089844 126 L 947 126 L 947 137 L 937.089844 137 Z M 937.089844 126 " clip-rule="nonzero"/></clipPath><clipPath id="e05c818ce1"><path d="M 945 76.679688 L 1127.484375 76.679688 L 1127.484375 207.929688 L 945 207.929688 Z M 945 76.679688 " clip-rule="nonzero"/></clipPath></defs><rect x="-144" width="1728" fill="#ffffff" y="-30.899999" height="370.79999" fill-opacity="1"/><rect x="-144" width="1728" fill="#ffffff" y="-30.899999" height="370.79999" fill-opacity="1"/><rect x="-144" width="1728" fill="#111011" y="-30.899999" height="370.79999" fill-opacity="1"/><g fill="#ffcc00" fill-opacity="1"><g transform="translate(602.087729, 190.603552)"><g><path d="M 7.125 -36.347656 L 5.796875 -26.804688 L 4.710938 -25.839844 L 5.917969 -17.386719 L 22.941406 -33.449219 L 6.519531 -17.148438 L 6.039062 -12.195312 L 8.332031 -9.78125 L 29.824219 -31.878906 L 29.824219 -39.96875 L 30.1875 -40.332031 L 30.429688 -49.628906 L 30.429688 -49.75 L 29.824219 -58.683594 L 31.152344 -60.011719 L 30.1875 -60.375 L 30.671875 -60.375 L 31.152344 -60.859375 L 39.96875 -60.011719 L 41.539062 -61.703125 L 49.023438 -60.375 L 67.015625 -76.433594 L 51.199219 -59.046875 L 59.046875 -60.375 L 81.746094 -84.644531 L 74.261719 -84.523438 L 73.414062 -83.679688 L 64.722656 -84.285156 L 52.527344 -72.8125 L 65.324219 -85.851562 L 55.425781 -84.886719 L 44.195312 -74.382812 L 55.183594 -85.613281 L 46.246094 -84.285156 L 5.675781 -44.796875 L 4.949219 -44.074219 L 6.398438 -35.984375 L 15.699219 -44.917969 Z M 14.371094 -4.828125 L 17.75 -0.605469 L 33.085938 -14.371094 L 19.441406 0.484375 L 27.046875 -0.121094 L 45.886719 -18.355469 L 28.015625 -0.242188 L 36.347656 -0.242188 L 46.488281 -9.78125 L 36.949219 -0.242188 L 45.160156 -0.242188 L 69.550781 -22.941406 L 60.859375 -24.148438 L 59.890625 -23.183594 L 51.558594 -24.027344 L 50.957031 -23.425781 L 42.140625 -24.390625 L 41.296875 -23.425781 L 33.085938 -24.148438 Z M 6.640625 -73.175781 L 5.796875 -64.238281 L 25.71875 -83.074219 L 6.398438 -61.824219 L 6.039062 -54.578125 L 16.785156 -64.480469 L 7.125 -54.941406 L 5.675781 -44.796875 L 44.316406 -86.335938 L 36.828125 -84.285156 L 35.621094 -83.195312 L 27.289062 -84.765625 L 27.046875 -84.523438 L 17.75 -84.164062 Z M 71.726562 -48.179688 L 74.984375 -48.300781 L 75.347656 -48.664062 L 84.402344 -47.9375 L 95.996094 -60.132812 L 95.753906 -68.34375 L 97.082031 -69.671875 L 95.996094 -72.449219 L 93.097656 -75.105469 L 73.175781 -52.886719 Z M 46.972656 -0.121094 L 54.820312 0.121094 L 78.609375 -24.148438 L 70.757812 -24.148438 Z M 56.390625 0.964844 L 63.875 0.242188 L 88.628906 -24.511719 L 79.9375 -24.148438 Z M 60.253906 -60.980469 L 68.585938 -60.375 L 87.90625 -80.539062 L 83.800781 -84.765625 Z M 89.113281 -24.148438 L 65.929688 -0.964844 L 73.898438 -0.121094 L 92.132812 -19.320312 L 92.976562 -24.027344 Z M 9.417969 -10.746094 L 12.800781 -5.3125 L 33.207031 -25.359375 L 30.1875 -24.148438 L 30.066406 -30.910156 Z M 71.847656 -60.375 L 71.96875 -54.699219 L 93.339844 -76.675781 L 88.75 -79.695312 L 68.828125 -59.890625 Z M 74.984375 0 L 82.957031 -0.363281 L 92.855469 -10.382812 L 92.617188 -18.234375 Z M 84.644531 -47.9375 L 93.824219 -48.179688 L 95.996094 -50.59375 L 95.996094 -59.289062 Z M 83.800781 -0.363281 L 92.734375 0.363281 L 92.855469 -0.484375 L 92.855469 -9.054688 Z M 95.996094 -48.300781 L 95.996094 -49.75 L 94.546875 -48.300781 Z M 95.996094 -48.300781 "/></g></g></g><g fill="#ffcc00" fill-opacity="1"><g transform="translate(704.121482, 190.603552)"><g><path d="M 10.988281 -17.871094 L 10.144531 -10.988281 L 8.933594 -9.902344 L 9.539062 -0.484375 L 8.933594 0.121094 L 18.59375 0.242188 L 41.898438 -22.941406 L 34.171875 -24.390625 L 9.539062 -0.484375 L 33.449219 -24.875 L 33.449219 -32.480469 L 34.171875 -33.207031 L 33.6875 -41.175781 L 35.015625 -42.382812 L 33.449219 -51.679688 L 21.132812 -40.089844 L 35.257812 -54.214844 L 33.808594 -54.335938 L 26.804688 -54.214844 L 21.855469 -49.628906 L 26.324219 -53.855469 L 17.386719 -54.578125 L 9.296875 -46.125 L 9.296875 -38.035156 L 8.933594 -37.675781 L 9.902344 -29.582031 L 9.539062 -29.222656 L 9.296875 -19.199219 L 25.597656 -33.929688 Z M 29.945312 -1.449219 L 37.070312 0.242188 L 59.289062 -20.890625 L 39.242188 -0.121094 L 46.972656 -0.242188 L 58.441406 -10.867188 L 49.265625 -1.691406 L 55.785156 0.363281 L 89.71875 -35.984375 L 90.199219 -40.089844 L 93.460938 -43.109375 L 90.683594 -52.527344 L 66.414062 -26.925781 L 66.292969 -24.148438 L 62.546875 -24.269531 L 61.582031 -23.304688 L 52.527344 -24.269531 Z M 5.675781 -59.046875 L 13.523438 -60.375 L 13.886719 -60.738281 L 22.460938 -60.738281 L 22.582031 -60.859375 L 31.878906 -60.011719 L 57.234375 -85.851562 L 47.453125 -84.886719 L 46.367188 -83.800781 L 38.519531 -84.644531 L 21.011719 -68.34375 L 36.226562 -84.644531 L 28.617188 -84.523438 Z M 66.292969 -60.375 L 66.292969 -57.113281 L 84.765625 -77.402344 L 82.230469 -80.539062 L 82.714844 -80.902344 L 78.609375 -84.523438 L 75.832031 -84.523438 L 74.984375 -83.558594 L 66.292969 -84.402344 L 42.746094 -60.617188 L 51.199219 -60.617188 L 70.757812 -79.089844 L 52.769531 -59.890625 L 59.890625 -60.496094 L 69.429688 -69.070312 L 61.097656 -60.980469 Z M 66.414062 -47.09375 L 66.050781 -38.519531 L 88.75 -59.652344 L 67.015625 -36.464844 L 65.929688 -28.738281 L 90.804688 -53.613281 L 90.683594 -61.703125 L 90.5625 -61.582031 L 90.320312 -71.121094 Z M 67.742188 0.84375 L 74.984375 0.121094 L 91.40625 -16.542969 L 90.441406 -22.941406 L 91.285156 -23.667969 L 90.320312 -33.808594 L 57.71875 2.054688 L 65.566406 0 L 82.109375 -15.214844 Z M 19.921875 -0.964844 L 27.773438 -0.121094 L 52.886719 -24.996094 L 43.832031 -24.148438 Z M 33.570312 -60.496094 L 41.417969 -60.253906 L 65.203125 -84.523438 L 57.355469 -84.523438 Z M 0.722656 -60.375 L 3.863281 -60.375 L 27.652344 -86.09375 L 19.683594 -84.523438 L 1.328125 -66.292969 Z M 86.699219 -76.433594 L 67.136719 -56.148438 L 66.414062 -48.058594 L 89.71875 -73.296875 Z M 0.242188 -75.347656 L 0.722656 -66.535156 L 18.59375 -85.613281 L 10.023438 -84.886719 Z M 78.609375 0 L 90.683594 -11.953125 L 90.5625 -14.730469 L 75.832031 -0.363281 Z M 0.605469 -76.191406 L 9.175781 -84.886719 L 1.085938 -84.164062 Z M 9.902344 -47.453125 L 16.542969 -53.976562 L 9.660156 -54.214844 Z M 89.839844 -73.414062 L 90.5625 -72.449219 L 89.71875 -73.296875 Z M 89.839844 -73.414062 "/></g></g></g><g fill="#ffcc00" fill-opacity="1"><g transform="translate(800.721489, 190.603552)"><g><path d="M 4.347656 -8.453125 L 5.917969 -0.84375 L 26.445312 -20.890625 L 7.003906 -1.328125 L 14.25 -0.363281 L 30.1875 -16.542969 L 29.824219 -24.148438 L 30.792969 -25.117188 L 30.1875 -33.207031 L 30.308594 -33.328125 L 30.429688 -43.226562 L 7.488281 -18.476562 L 6.039062 -10.503906 L 17.027344 -20.890625 Z M 24.875 -84.523438 L 24.511719 -84.164062 L 15.699219 -84.644531 L 6.398438 -74.746094 L 5.554688 -66.414062 L 7.246094 -67.980469 L 4.949219 -65.808594 L 5.554688 -58.082031 L 4.828125 -57.355469 L 5.917969 -47.574219 L 29.101562 -72.085938 L 30.429688 -80.296875 L 10.503906 -62.546875 L 28.738281 -82.109375 L 30.1875 -84.523438 Z M 5.3125 -37.433594 L 6.277344 -29.222656 L 31.152344 -53.371094 L 30.429688 -62.066406 Z M 4.710938 -45.402344 L 5.796875 -38.640625 L 29.824219 -61.582031 L 30.308594 -70.878906 Z M 5.917969 -28.375 L 6.039062 -19.320312 L 28.980469 -44.796875 L 30.308594 -52.164062 Z M 15.578125 0.484375 L 23.789062 -0.242188 L 30.308594 -6.277344 L 30.1875 -14.730469 Z M 5.917969 -75.953125 L 14.851562 -84.523438 L 6.039062 -84.523438 Z M 30.308594 -0.121094 L 30.1875 -5.3125 L 24.632812 0.121094 Z M 30.308594 -0.121094 "/></g></g></g><g clip-path="url(#dd5fab18da)"><path fill="#ffcc00" d="M 46.042969 77.570312 L 88.878906 52.859375 L 88.878906 102.285156 Z M 45.507812 170.816406 L 88.875 145.796875 L 88.875 154.1875 L 45.507812 179.210938 Z M 88.875 143.3125 L 45.507812 168.332031 L 45.507812 160.558594 L 88.875 135.539062 Z M 45.507812 150.304688 L 88.875 125.28125 L 88.875 133.058594 L 45.507812 158.074219 Z M 45.507812 140.046875 L 88.875 115.023438 L 88.875 122.800781 L 45.507812 147.820312 Z M 45.507812 129.164062 C 59.964844 120.835938 74.421875 112.484375 88.875 104.144531 L 88.875 112.542969 L 45.507812 137.5625 Z M 67.191406 12.84375 C 59.597656 17.214844 52.011719 21.59375 44.429688 25.976562 L 44.429688 52.859375 L 90.488281 26.285156 Z M 67.191406 38.484375 L 46.042969 26.285156 L 67.191406 14.085938 L 88.339844 26.285156 Z M 45.507812 27.214844 L 66.117188 39.105469 L 45.507812 50.996094 Z M 223.296875 99.019531 L 266.667969 73.996094 L 266.667969 81.769531 L 223.296875 106.792969 Z M 223.296875 88.761719 L 266.667969 63.738281 L 266.667969 71.515625 L 223.296875 96.535156 Z M 223.296875 78.5 L 266.667969 53.480469 L 266.667969 61.257812 L 223.296875 86.277344 Z M 215.484375 72.753906 L 258.855469 47.730469 L 265.59375 51.617188 L 222.21875 76.640625 Z M 206.59375 67.625 L 249.96875 42.601562 L 256.703125 46.488281 L 213.332031 71.511719 Z M 179.382812 51.929688 L 222.757812 26.90625 L 230.035156 31.101562 L 186.660156 56.125 Z M 222.21875 107.722656 L 204.710938 117.824219 L 197.4375 113.625 L 222.21875 99.328125 Z M 215.214844 123.882812 L 222.21875 119.84375 L 222.21875 127.925781 Z M 222.21875 117.980469 L 213.601562 122.953125 L 206.324219 118.753906 L 222.21875 109.585938 Z M 134.402344 118.910156 L 177.773438 93.890625 L 177.773438 102.902344 L 134.402344 127.925781 Z M 134.402344 108.652344 L 177.773438 83.632812 L 177.773438 92.648438 L 134.402344 117.667969 Z M 134.402344 98.394531 L 177.773438 73.375 L 177.773438 82.390625 L 134.402344 107.410156 Z M 203.914062 118.59375 L 160.53125 143.625 L 152.71875 139.117188 L 196.101562 114.085938 Z M 170.496094 149.371094 L 213.875 124.347656 L 221.683594 128.855469 L 178.308594 153.878906 Z M 212.800781 123.726562 L 169.421875 148.75 L 161.609375 144.246094 L 204.992188 119.214844 Z M 223.296875 119.53125 L 266.667969 94.511719 L 266.667969 102.90625 L 223.296875 127.925781 Z M 266.667969 92.027344 L 223.296875 117.046875 L 223.296875 109.273438 L 266.667969 84.253906 Z M 197.703125 62.496094 L 241.078125 37.472656 L 247.816406 41.359375 L 204.441406 66.382812 Z M 238.925781 36.230469 L 195.554688 61.253906 L 188.8125 57.367188 L 232.1875 32.34375 Z M 188.546875 108.5 L 222.21875 89.070312 L 222.21875 97.46875 L 195.820312 112.695312 Z M 222.21875 87.210938 L 186.933594 107.566406 L 179.65625 103.367188 L 222.21875 78.8125 Z M 178.851562 73.0625 L 196.359375 62.960938 L 203.636719 67.160156 L 178.851562 81.457031 Z M 185.859375 56.902344 L 178.851562 60.945312 L 178.851562 52.859375 Z M 178.851562 62.804688 L 187.46875 57.832031 L 194.746094 62.03125 L 178.851562 71.203125 Z M 212.527344 72.289062 L 178.851562 91.714844 L 178.851562 83.320312 L 205.25 68.089844 Z M 178.851562 93.574219 L 214.136719 73.21875 L 221.414062 77.414062 L 178.851562 101.972656 Z M 143.828125 133.988281 L 187.210938 108.960938 L 195.027344 113.464844 L 151.644531 138.496094 Z M 186.132812 108.339844 L 142.753906 133.367188 L 134.9375 128.859375 L 178.3125 103.832031 Z M 134.402344 88.140625 L 177.773438 63.121094 L 177.773438 72.132812 L 134.402344 97.15625 Z M 177.773438 61.878906 L 134.402344 86.898438 L 134.402344 77.878906 L 177.773438 52.859375 Z M 177.238281 51.929688 L 133.863281 76.953125 L 90.488281 51.929688 L 133.863281 26.90625 Z M 288.890625 167.007812 C 288.890625 175.761719 288.90625 184.519531 288.890625 193.273438 L 312.1875 206.710938 C 312.199219 189 312.191406 171.285156 312.191406 153.570312 Z M 290.503906 192.960938 L 311.113281 181.070312 L 311.113281 204.851562 Z M 311.113281 179.832031 L 289.964844 192.035156 L 289.964844 167.628906 L 311.117188 155.429688 Z M 288.890625 63.820312 L 288.890625 91.324219 L 312.726562 77.570312 Z M 289.96875 65.679688 L 310.578125 77.570312 L 289.96875 89.460938 Z M 178.308594 0.0234375 C 170.539062 4.496094 162.777344 8.984375 155.011719 13.464844 C 162.777344 17.945312 170.550781 22.417969 178.308594 26.90625 C 186.070312 22.417969 193.84375 17.945312 201.609375 13.464844 Z M 178.308594 1.265625 L 199.460938 13.464844 L 178.308594 25.667969 L 157.160156 13.464844 Z M 178.847656 154.808594 L 222.21875 129.785156 L 222.21875 179.832031 L 178.847656 204.851562 Z M 134.398438 230.496094 L 134.398438 179.832031 L 90.488281 154.496094 L 133.863281 129.476562 C 148.511719 137.898438 163.128906 146.375 177.773438 154.808594 L 177.773438 205.476562 Z M 133.324219 191.023438 L 133.324219 199.417969 L 89.953125 174.394531 L 89.953125 166 Z M 89.953125 155.429688 L 133.324219 180.453125 L 133.324219 189.160156 L 89.953125 164.136719 Z M 133.324219 209.671875 L 89.953125 184.652344 L 89.953125 176.257812 L 133.324219 201.28125 Z M 133.324219 219.929688 L 89.953125 194.910156 L 89.953125 186.515625 L 133.324219 211.535156 Z M 89.953125 196.769531 L 133.324219 221.792969 L 133.324219 230.496094 L 89.953125 205.476562 Z M 230.574219 133.984375 L 230.574219 184.027344 L 223.292969 179.832031 L 223.296875 129.785156 Z M 239.464844 139.113281 L 239.464844 189.160156 L 232.722656 185.269531 L 232.722656 135.222656 Z M 248.355469 144.242188 L 248.355469 194.289062 L 241.613281 190.398438 L 241.613281 140.351562 Z M 257.242188 149.371094 L 257.242188 199.417969 L 250.5 195.527344 L 250.503906 145.484375 Z M 266.667969 204.851562 L 259.390625 200.65625 L 259.390625 150.609375 L 266.667969 154.808594 Z M 215.214844 226.453125 L 258.585938 201.433594 L 266.128906 205.785156 L 222.757812 230.804688 Z M 256.972656 200.5 L 213.601562 225.523438 L 206.324219 221.324219 L 249.695312 196.304688 Z M 230.300781 185.113281 L 186.929688 210.136719 L 179.386719 205.785156 L 222.757812 180.761719 Z M 197.4375 216.199219 L 240.808594 191.175781 L 248.082031 195.375 L 204.710938 220.394531 Z M 239.191406 190.246094 L 195.820312 215.265625 L 188.542969 211.066406 L 231.914062 186.046875 Z M 246.054688 244.246094 L 266.667969 232.359375 L 266.667969 256.136719 Z M 243.90625 244.25 L 267.746094 258 L 267.746094 230.496094 Z M 90.488281 257.066406 L 133.324219 232.355469 L 133.324219 281.78125 Z M 213.867188 287.21875 L 170.496094 262.195312 L 178.308594 257.6875 L 221.683594 282.710938 Z M 187.199219 302.605469 L 143.824219 277.582031 L 151.640625 273.074219 L 195.011719 298.097656 Z M 142.75 278.203125 L 186.125 303.226562 L 178.308594 307.734375 L 134.933594 282.710938 Z M 204.976562 292.351562 L 161.605469 267.328125 L 169.421875 262.816406 L 212.792969 287.839844 Z M 160.527344 267.945312 L 203.902344 292.96875 L 196.089844 297.480469 L 152.714844 272.457031 Z M 89.953125 52.859375 L 133.324219 77.878906 L 133.324219 128.546875 L 89.953125 153.566406 C 89.953125 119.992188 89.953125 86.429688 89.953125 52.859375 Z M 132.789062 231.429688 L 88.339844 257.070312 C 118.324219 274.378906 148.308594 291.6875 178.308594 308.972656 C 193.484375 300.230469 208.65625 291.46875 223.832031 282.710938 C 208.660156 273.953125 193.476562 265.21875 178.308594 256.449219 L 134.398438 281.78125 C 134.398438 265.101562 134.390625 248.417969 134.398438 231.738281 C 149.042969 223.308594 163.679688 214.855469 178.308594 206.402344 L 222.757812 232.046875 C 237.769531 223.425781 252.753906 214.75 267.746094 206.09375 L 267.746094 154.804688 L 312.726562 128.855469 L 267.746094 102.90625 L 267.746094 51.621094 C 252.75 42.96875 237.765625 34.292969 222.757812 25.667969 L 178.308594 51.308594 L 133.863281 25.667969 C 103.851562 42.925781 73.882812 60.269531 43.894531 77.570312 L 88.339844 103.214844 L 44.96875 128.238281 L -0.0195312 102.285156 C -0.0195312 120 -0.0273438 137.714844 -0.015625 155.429688 C 14.796875 146.882812 29.609375 138.328125 44.429688 129.785156 L 44.429688 181.074219 C 59.242188 172.527344 74.066406 163.984375 88.878906 155.429688 L 88.878906 206.09375 C 103.507812 214.542969 118.140625 223 132.789062 231.429688 Z M 223.832031 128.855469 L 267.207031 103.832031 L 310.578125 128.855469 L 267.203125 153.878906 C 252.746094 145.539062 238.289062 137.195312 223.832031 128.855469 Z M 1.054688 104.140625 L 43.894531 128.855469 L 1.058594 153.570312 L 1.054688 104.140625 " fill-opacity="1" fill-rule="nonzero"/></g><path fill="#ffcc00" d="M 492.144531 152.203125 L 455.683594 152.203125 L 455.683594 151.132812 L 492.144531 151.132812 L 492.144531 152.203125 " fill-opacity="1" fill-rule="nonzero"/><g clip-path="url(#7ea3cc17a9)"><path fill="#ffcc00" d="M 498.582031 134.578125 C 496.964844 134.578125 495.652344 133.265625 495.652344 131.640625 C 495.652344 130.019531 496.964844 128.707031 498.582031 128.707031 C 500.199219 128.707031 501.511719 130.019531 501.511719 131.640625 C 501.511719 133.265625 500.199219 134.578125 498.582031 134.578125 Z M 498.582031 126.984375 C 496.011719 126.984375 493.933594 129.070312 493.933594 131.640625 C 493.933594 134.214844 496.011719 136.300781 498.582031 136.300781 C 501.148438 136.300781 503.226562 134.214844 503.226562 131.640625 C 503.226562 129.070312 501.148438 126.984375 498.582031 126.984375 " fill-opacity="1" fill-rule="nonzero"/></g><path fill="#ffcc00" d="M 465.332031 166.074219 C 463.714844 166.074219 462.402344 164.761719 462.402344 163.136719 C 462.402344 161.515625 463.714844 160.203125 465.332031 160.203125 C 466.949219 160.203125 468.261719 161.515625 468.261719 163.136719 C 468.261719 164.761719 466.949219 166.074219 465.332031 166.074219 Z M 465.332031 158.480469 C 462.765625 158.480469 460.683594 160.566406 460.683594 163.136719 C 460.683594 165.710938 462.765625 167.796875 465.332031 167.796875 C 467.898438 167.796875 469.980469 165.710938 469.980469 163.136719 C 469.980469 160.566406 467.898438 158.480469 465.332031 158.480469 " fill-opacity="1" fill-rule="nonzero"/><path fill="#ffcc00" d="M 369.132812 154.527344 C 367.363281 154.527344 365.925781 155.964844 365.925781 157.738281 C 365.925781 159.511719 367.363281 160.953125 369.132812 160.953125 C 370.902344 160.953125 372.335938 159.511719 372.335938 157.738281 C 372.335938 155.964844 370.902344 154.527344 369.132812 154.527344 " fill-opacity="1" fill-rule="nonzero"/><path fill="#ffcc00" d="M 494.554688 148.457031 C 492.785156 148.457031 491.351562 149.894531 491.351562 151.667969 C 491.351562 153.441406 492.785156 154.878906 494.554688 154.878906 C 496.328125 154.878906 497.761719 153.441406 497.761719 151.667969 C 497.761719 149.894531 496.328125 148.457031 494.554688 148.457031 " fill-opacity="1" fill-rule="nonzero"/><path fill="#ffcc00" d="M 463.890625 117.660156 C 462.121094 117.660156 460.683594 119.097656 460.683594 120.871094 C 460.683594 122.644531 462.121094 124.082031 463.890625 124.082031 C 465.660156 124.082031 467.09375 122.644531 467.09375 120.871094 C 467.09375 119.097656 465.660156 117.660156 463.890625 117.660156 " fill-opacity="1" fill-rule="nonzero"/><path fill="#ffcc00" d="M 445.46875 146.5 C 444.351562 146.5 443.445312 145.59375 443.445312 144.472656 C 443.445312 143.355469 444.351562 142.449219 445.46875 142.449219 C 446.582031 142.449219 447.488281 143.355469 447.488281 144.472656 C 447.488281 145.59375 446.582031 146.5 445.46875 146.5 Z M 445.46875 141.261719 C 443.695312 141.261719 442.261719 142.699219 442.261719 144.472656 C 442.261719 146.25 443.695312 147.6875 445.46875 147.6875 C 447.238281 147.6875 448.671875 146.25 448.671875 144.472656 C 448.671875 142.699219 447.238281 141.261719 445.46875 141.261719 " fill-opacity="1" fill-rule="nonzero"/><path fill="#ffcc00" d="M 374.792969 124.921875 C 373.675781 124.921875 372.769531 124.015625 372.769531 122.898438 C 372.769531 121.777344 373.675781 120.871094 374.792969 120.871094 C 375.90625 120.871094 376.8125 121.777344 376.8125 122.898438 C 376.8125 124.015625 375.90625 124.921875 374.792969 124.921875 Z M 374.792969 119.683594 C 373.023438 119.683594 371.585938 121.121094 371.585938 122.898438 C 371.585938 124.671875 373.023438 126.109375 374.792969 126.109375 C 376.5625 126.109375 377.996094 124.671875 377.996094 122.898438 C 377.996094 121.121094 376.5625 119.683594 374.792969 119.683594 " fill-opacity="1" fill-rule="nonzero"/><g clip-path="url(#d477f4a32a)"><path fill="#ffcc00" d="M 381.960938 177.976562 L 340.378906 177.976562 L 312.730469 205.65625 L 312.730469 207.921875 L 341.042969 179.578125 L 382.625 179.578125 L 398.128906 164.039062 L 461.644531 164.039062 L 461.644531 162.4375 L 397.464844 162.4375 Z M 372.449219 123.820312 L 372.449219 122.21875 L 333.351562 122.21875 L 312.730469 101.554688 L 312.730469 103.820312 L 332.6875 123.820312 Z M 426.5625 130.914062 L 415.179688 142.324219 L 394.933594 142.324219 L 385.390625 132.761719 L 312.730469 132.761719 L 312.730469 134.363281 L 384.730469 134.363281 L 394.269531 143.925781 L 415.839844 143.925781 L 427.226562 132.515625 L 494.558594 132.515625 L 494.558594 130.914062 Z M 340.492188 106.105469 L 382.070312 106.105469 L 397.574219 121.644531 L 461.644531 121.644531 L 461.644531 120.574219 L 398.015625 120.574219 L 382.511719 105.035156 L 340.933594 105.035156 L 312.730469 76.675781 L 312.730469 78.1875 L 340.335938 105.949219 Z M 384.164062 157.25 L 384.320312 157.40625 L 433.570312 157.40625 L 443.828125 147.125 L 443.074219 146.371094 L 433.128906 156.339844 L 384.761719 156.339844 L 372.828125 144.375 L 372.671875 144.21875 L 312.730469 144.21875 L 312.730469 145.289062 L 372.230469 145.289062 Z M 366.296875 158.335938 L 366.296875 157.265625 L 327.824219 157.265625 L 312.730469 172.394531 L 312.730469 173.90625 L 328.265625 158.335938 L 366.296875 158.335938 " fill-opacity="1" fill-rule="nonzero"/></g><g clip-path="url(#65cf363e07)"><path fill="#ffcc00" d="M 1394.167969 77.570312 L 1351.332031 52.859375 L 1351.332031 102.285156 Z M 1394.707031 170.816406 L 1351.335938 145.796875 L 1351.335938 154.1875 L 1394.707031 179.210938 Z M 1351.339844 143.3125 L 1394.707031 168.332031 L 1394.707031 160.558594 L 1351.335938 135.539062 Z M 1394.707031 150.304688 L 1351.335938 125.28125 L 1351.335938 133.058594 L 1394.707031 158.074219 Z M 1394.707031 140.046875 L 1351.335938 115.023438 L 1351.335938 122.800781 L 1394.707031 147.820312 Z M 1394.707031 129.164062 C 1380.246094 120.835938 1365.792969 112.484375 1351.335938 104.144531 L 1351.335938 112.542969 L 1394.707031 137.5625 Z M 1373.023438 12.84375 C 1380.613281 17.214844 1388.199219 21.59375 1395.785156 25.976562 L 1395.785156 52.859375 L 1349.722656 26.285156 Z M 1373.023438 38.484375 L 1394.171875 26.285156 L 1373.023438 14.085938 L 1351.875 26.285156 Z M 1394.707031 27.214844 L 1374.097656 39.105469 L 1394.707031 50.996094 Z M 1216.914062 99.019531 L 1173.546875 73.996094 L 1173.546875 81.769531 L 1216.914062 106.792969 Z M 1216.914062 88.761719 L 1173.546875 63.738281 L 1173.546875 71.515625 L 1216.914062 96.535156 Z M 1216.914062 78.5 L 1173.546875 53.480469 L 1173.546875 61.257812 L 1216.914062 86.277344 Z M 1224.730469 72.753906 L 1181.355469 47.730469 L 1174.617188 51.617188 L 1217.992188 76.640625 Z M 1233.617188 67.625 L 1190.246094 42.601562 L 1183.507812 46.488281 L 1226.882812 71.511719 Z M 1260.828125 51.929688 L 1217.453125 26.90625 L 1210.179688 31.101562 L 1253.550781 56.125 Z M 1217.992188 107.722656 L 1235.5 117.824219 L 1242.773438 113.625 L 1217.992188 99.328125 Z M 1224.996094 123.882812 L 1217.992188 119.84375 L 1217.992188 127.925781 Z M 1217.992188 117.980469 L 1226.609375 122.953125 L 1233.886719 118.753906 L 1217.992188 109.585938 Z M 1305.808594 118.910156 L 1262.441406 93.890625 L 1262.441406 102.902344 L 1305.808594 127.925781 Z M 1305.808594 108.652344 L 1262.441406 83.632812 L 1262.441406 92.648438 L 1305.808594 117.667969 Z M 1305.808594 98.394531 L 1262.441406 73.375 L 1262.441406 82.390625 L 1305.808594 107.410156 Z M 1236.296875 118.59375 L 1279.679688 143.625 L 1287.492188 139.117188 L 1244.109375 114.085938 Z M 1269.714844 149.371094 L 1226.335938 124.347656 L 1218.527344 128.855469 L 1261.902344 153.878906 Z M 1227.414062 123.726562 L 1270.789062 148.75 L 1278.601562 144.246094 L 1235.222656 119.214844 Z M 1216.914062 119.53125 L 1173.546875 94.511719 L 1173.546875 102.90625 L 1216.914062 127.925781 Z M 1173.546875 92.027344 L 1216.914062 117.046875 L 1216.914062 109.273438 L 1173.546875 84.253906 Z M 1242.507812 62.496094 L 1199.132812 37.472656 L 1192.398438 41.359375 L 1235.769531 66.382812 Z M 1201.285156 36.230469 L 1244.660156 61.253906 L 1251.398438 57.367188 L 1208.027344 32.34375 Z M 1251.664062 108.5 L 1217.992188 89.070312 L 1217.992188 97.46875 L 1244.390625 112.695312 Z M 1217.992188 87.210938 L 1253.277344 107.566406 L 1260.554688 103.367188 L 1217.992188 78.8125 Z M 1261.363281 73.0625 L 1243.851562 62.960938 L 1236.574219 67.160156 L 1261.363281 81.457031 Z M 1254.351562 56.902344 L 1261.363281 60.945312 L 1261.363281 52.859375 Z M 1261.363281 62.804688 L 1252.742188 57.832031 L 1245.464844 62.03125 L 1261.363281 71.203125 Z M 1227.683594 72.289062 L 1261.363281 91.714844 L 1261.363281 83.320312 L 1234.960938 68.089844 Z M 1261.363281 93.574219 L 1226.074219 73.21875 L 1218.796875 77.414062 L 1261.363281 101.972656 Z M 1296.382812 133.988281 L 1253 108.960938 L 1245.1875 113.464844 L 1288.570312 138.496094 Z M 1254.078125 108.339844 L 1297.457031 133.367188 L 1305.273438 128.859375 L 1261.902344 103.832031 Z M 1305.808594 88.140625 L 1262.441406 63.121094 L 1262.441406 72.132812 L 1305.808594 97.15625 Z M 1262.441406 61.878906 L 1305.808594 86.898438 L 1305.808594 77.878906 L 1262.441406 52.859375 Z M 1262.976562 51.929688 L 1306.347656 76.953125 L 1349.722656 51.929688 L 1306.347656 26.90625 Z M 1151.320312 167.007812 C 1151.320312 175.761719 1151.308594 184.519531 1151.320312 193.273438 L 1128.023438 206.710938 C 1128.015625 189 1128.023438 171.285156 1128.023438 153.570312 Z M 1149.710938 192.960938 L 1129.097656 181.070312 L 1129.097656 204.851562 Z M 1129.097656 179.832031 L 1150.246094 192.035156 L 1150.246094 167.628906 L 1129.09375 155.429688 Z M 1151.320312 63.820312 L 1151.320312 91.324219 L 1127.484375 77.570312 Z M 1150.242188 65.679688 L 1129.632812 77.570312 L 1150.242188 89.460938 Z M 1261.902344 0.0234375 C 1269.671875 4.496094 1277.433594 8.984375 1285.199219 13.464844 C 1277.433594 17.945312 1269.664062 22.417969 1261.902344 26.90625 C 1254.140625 22.417969 1246.367188 17.945312 1238.605469 13.464844 Z M 1261.902344 1.265625 L 1240.753906 13.464844 L 1261.902344 25.667969 L 1283.050781 13.464844 Z M 1261.363281 154.808594 L 1217.992188 129.785156 L 1217.992188 179.832031 L 1261.363281 204.851562 Z M 1305.8125 230.496094 L 1305.8125 179.832031 L 1349.722656 154.496094 L 1306.347656 129.476562 C 1291.699219 137.898438 1277.082031 146.375 1262.441406 154.808594 L 1262.441406 205.476562 Z M 1306.886719 191.023438 L 1306.886719 199.417969 L 1350.257812 174.394531 L 1350.257812 166 Z M 1350.257812 155.429688 L 1306.886719 180.453125 L 1306.886719 189.160156 L 1350.257812 164.136719 Z M 1306.886719 209.671875 L 1350.257812 184.652344 L 1350.257812 176.257812 L 1306.886719 201.28125 Z M 1306.886719 219.929688 L 1350.257812 194.910156 L 1350.257812 186.515625 L 1306.886719 211.535156 Z M 1350.257812 196.769531 L 1306.886719 221.792969 L 1306.886719 230.496094 L 1350.257812 205.476562 Z M 1209.636719 133.984375 L 1209.640625 184.027344 L 1216.917969 179.832031 L 1216.917969 129.785156 Z M 1200.746094 139.113281 L 1200.746094 189.160156 L 1207.492188 185.269531 L 1207.488281 135.222656 Z M 1191.855469 144.242188 L 1191.855469 194.289062 L 1198.601562 190.398438 L 1198.597656 140.351562 Z M 1182.96875 149.371094 L 1182.96875 199.417969 L 1189.710938 195.527344 L 1189.710938 145.484375 Z M 1173.546875 204.851562 L 1180.824219 200.65625 L 1180.820312 150.609375 L 1173.546875 154.808594 Z M 1225 226.453125 L 1181.628906 201.433594 L 1174.082031 205.785156 L 1217.453125 230.804688 Z M 1183.242188 200.5 L 1226.613281 225.523438 L 1233.886719 221.324219 L 1190.515625 196.304688 Z M 1209.910156 185.113281 L 1253.28125 210.136719 L 1260.824219 205.785156 L 1217.457031 180.761719 Z M 1242.777344 216.199219 L 1199.40625 191.175781 L 1192.128906 195.375 L 1235.5 220.394531 Z M 1201.019531 190.246094 L 1244.390625 215.265625 L 1251.667969 211.066406 L 1208.296875 186.046875 Z M 1194.15625 244.246094 L 1173.546875 232.359375 L 1173.546875 256.136719 Z M 1196.304688 244.25 L 1172.46875 258 L 1172.46875 230.496094 Z M 1349.722656 257.066406 L 1306.886719 232.355469 L 1306.886719 281.78125 Z M 1226.34375 287.21875 L 1269.714844 262.195312 L 1261.902344 257.6875 L 1218.527344 282.710938 Z M 1253.011719 302.605469 L 1296.386719 277.582031 L 1288.574219 273.074219 L 1245.199219 298.097656 Z M 1297.460938 278.203125 L 1254.089844 303.226562 L 1261.902344 307.734375 L 1305.277344 282.710938 Z M 1235.234375 292.351562 L 1278.609375 267.328125 L 1270.792969 262.816406 L 1227.417969 287.839844 Z M 1279.683594 267.945312 L 1236.3125 292.96875 L 1244.125 297.480469 L 1287.496094 272.457031 Z M 1350.261719 52.859375 L 1306.890625 77.878906 L 1306.890625 128.546875 L 1350.257812 153.566406 C 1350.257812 119.992188 1350.261719 86.429688 1350.261719 52.859375 Z M 1307.425781 231.429688 L 1351.871094 257.070312 C 1321.886719 274.378906 1291.902344 291.6875 1261.902344 308.972656 C 1246.726562 300.230469 1231.554688 291.46875 1216.382812 282.710938 C 1231.554688 273.953125 1246.738281 265.21875 1261.902344 256.449219 L 1305.8125 281.78125 C 1305.8125 265.101562 1305.824219 248.417969 1305.8125 231.738281 C 1291.167969 223.308594 1276.535156 214.855469 1261.902344 206.402344 L 1217.453125 232.046875 C 1202.445312 223.425781 1187.457031 214.75 1172.464844 206.09375 L 1172.464844 154.804688 L 1127.488281 128.855469 L 1172.464844 102.90625 L 1172.464844 51.621094 C 1187.460938 42.96875 1202.445312 34.292969 1217.457031 25.667969 L 1261.902344 51.308594 L 1306.347656 25.667969 C 1336.363281 42.925781 1366.328125 60.269531 1396.320312 77.570312 L 1351.871094 103.214844 L 1395.246094 128.238281 L 1440.230469 102.285156 C 1440.230469 120 1440.238281 137.714844 1440.226562 155.429688 C 1425.414062 146.882812 1410.601562 138.328125 1395.785156 129.785156 L 1395.785156 181.074219 C 1380.96875 172.527344 1366.148438 163.984375 1351.335938 155.429688 L 1351.335938 206.09375 C 1336.703125 214.542969 1322.070312 223 1307.425781 231.429688 Z M 1216.378906 128.855469 L 1173.007812 103.832031 L 1129.632812 128.855469 L 1173.007812 153.878906 C 1187.464844 145.539062 1201.921875 137.195312 1216.378906 128.855469 Z M 1439.15625 104.140625 L 1396.320312 128.855469 L 1439.15625 153.570312 L 1439.15625 104.140625 " fill-opacity="1" fill-rule="nonzero"/></g><path fill="#ffcc00" d="M 948.066406 152.203125 L 984.53125 152.203125 L 984.53125 151.132812 L 948.066406 151.132812 L 948.066406 152.203125 " fill-opacity="1" fill-rule="nonzero"/><g clip-path="url(#18d6c75e72)"><path fill="#ffcc00" d="M 941.632812 134.578125 C 943.25 134.578125 944.5625 133.265625 944.5625 131.640625 C 944.5625 130.019531 943.25 128.707031 941.632812 128.707031 C 940.011719 128.707031 938.703125 130.019531 938.703125 131.640625 C 938.703125 133.265625 940.011719 134.578125 941.632812 134.578125 Z M 941.632812 126.984375 C 944.199219 126.984375 946.28125 129.070312 946.28125 131.640625 C 946.28125 134.214844 944.199219 136.300781 941.632812 136.300781 C 939.066406 136.300781 936.984375 134.214844 936.984375 131.640625 C 936.984375 129.070312 939.066406 126.984375 941.632812 126.984375 " fill-opacity="1" fill-rule="nonzero"/></g><path fill="#ffcc00" d="M 974.878906 166.074219 C 976.5 166.074219 977.808594 164.761719 977.808594 163.136719 C 977.808594 161.515625 976.5 160.203125 974.878906 160.203125 C 973.261719 160.203125 971.949219 161.515625 971.949219 163.136719 C 971.949219 164.761719 973.261719 166.074219 974.878906 166.074219 Z M 974.878906 158.480469 C 977.445312 158.480469 979.527344 160.566406 979.527344 163.136719 C 979.527344 165.710938 977.445312 167.796875 974.878906 167.796875 C 972.3125 167.796875 970.234375 165.710938 970.234375 163.136719 C 970.234375 160.566406 972.3125 158.480469 974.878906 158.480469 " fill-opacity="1" fill-rule="nonzero"/><path fill="#ffcc00" d="M 1071.078125 154.527344 C 1072.851562 154.527344 1074.285156 155.964844 1074.285156 157.738281 C 1074.285156 159.511719 1072.851562 160.953125 1071.078125 160.953125 C 1069.308594 160.953125 1067.875 159.511719 1067.875 157.738281 C 1067.875 155.964844 1069.308594 154.527344 1071.078125 154.527344 " fill-opacity="1" fill-rule="nonzero"/><path fill="#ffcc00" d="M 945.65625 148.457031 C 947.425781 148.457031 948.863281 149.894531 948.863281 151.667969 C 948.863281 153.441406 947.425781 154.878906 945.65625 154.878906 C 943.886719 154.878906 942.449219 153.441406 942.449219 151.667969 C 942.449219 149.894531 943.886719 148.457031 945.65625 148.457031 " fill-opacity="1" fill-rule="nonzero"/><path fill="#ffcc00" d="M 976.324219 117.660156 C 978.09375 117.660156 979.527344 119.097656 979.527344 120.871094 C 979.527344 122.644531 978.09375 124.082031 976.324219 124.082031 C 974.550781 124.082031 973.117188 122.644531 973.117188 120.871094 C 973.117188 119.097656 974.550781 117.660156 976.324219 117.660156 " fill-opacity="1" fill-rule="nonzero"/><path fill="#ffcc00" d="M 994.746094 146.5 C 995.863281 146.5 996.765625 145.59375 996.765625 144.472656 C 996.765625 143.355469 995.863281 142.449219 994.746094 142.449219 C 993.628906 142.449219 992.726562 143.355469 992.726562 144.472656 C 992.726562 145.59375 993.628906 146.5 994.746094 146.5 Z M 994.746094 141.261719 C 996.515625 141.261719 997.949219 142.699219 997.949219 144.472656 C 997.949219 146.25 996.515625 147.6875 994.746094 147.6875 C 992.976562 147.6875 991.539062 146.25 991.539062 144.472656 C 991.539062 142.699219 992.976562 141.261719 994.746094 141.261719 " fill-opacity="1" fill-rule="nonzero"/><path fill="#ffcc00" d="M 1065.421875 124.921875 C 1066.535156 124.921875 1067.441406 124.015625 1067.441406 122.898438 C 1067.441406 121.777344 1066.535156 120.871094 1065.421875 120.871094 C 1064.304688 120.871094 1063.398438 121.777344 1063.398438 122.898438 C 1063.398438 124.015625 1064.304688 124.921875 1065.421875 124.921875 Z M 1065.421875 119.683594 C 1067.191406 119.683594 1068.625 121.121094 1068.625 122.898438 C 1068.625 124.671875 1067.191406 126.109375 1065.421875 126.109375 C 1063.648438 126.109375 1062.214844 124.671875 1062.214844 122.898438 C 1062.214844 121.121094 1063.648438 119.683594 1065.421875 119.683594 " fill-opacity="1" fill-rule="nonzero"/><g clip-path="url(#e05c818ce1)"><path fill="#ffcc00" d="M 1058.25 177.976562 L 1099.832031 177.976562 L 1127.480469 205.65625 L 1127.480469 207.921875 L 1099.167969 179.578125 L 1057.589844 179.578125 L 1042.085938 164.039062 L 978.566406 164.039062 L 978.566406 162.4375 L 1042.75 162.4375 Z M 1067.761719 123.820312 L 1067.761719 122.21875 L 1106.863281 122.21875 L 1127.480469 101.554688 L 1127.480469 103.820312 L 1107.523438 123.820312 Z M 1013.648438 130.914062 L 1025.035156 142.324219 L 1045.28125 142.324219 L 1054.820312 132.761719 L 1127.480469 132.761719 L 1127.480469 134.363281 L 1055.484375 134.363281 L 1045.941406 143.925781 L 1024.371094 143.925781 L 1012.988281 132.515625 L 945.65625 132.515625 L 945.65625 130.914062 Z M 1099.722656 106.105469 L 1058.140625 106.105469 L 1042.636719 121.644531 L 978.566406 121.644531 L 978.566406 120.574219 L 1042.195312 120.574219 L 1057.699219 105.035156 L 1099.28125 105.035156 L 1127.480469 76.675781 L 1127.480469 78.1875 L 1099.878906 105.949219 Z M 1056.046875 157.25 L 1055.890625 157.40625 L 1006.640625 157.40625 L 996.382812 147.125 L 997.136719 146.371094 L 1007.082031 156.339844 L 1055.449219 156.339844 L 1067.386719 144.375 L 1067.542969 144.21875 L 1127.480469 144.21875 L 1127.480469 145.289062 L 1067.984375 145.289062 Z M 1073.914062 158.335938 L 1073.914062 157.265625 L 1112.386719 157.265625 L 1127.480469 172.394531 L 1127.480469 173.90625 L 1111.945312 158.335938 L 1073.914062 158.335938 " fill-opacity="1" fill-rule="nonzero"/></g></svg>